<svg xmlns="http://www.w3.org/2000/svg" width="526.037" height="70.941" viewBox="0 0 526.037 70.941">
  <g id="Group_23" data-name="Group 23" transform="translate(-563.963 -1825.972)">
    <text id="makes_music_do_fine_" data-name="makes music do fine!" transform="translate(950 1870)" fill="#fff" font-size="25" font-family="TitilliumWeb-Light, Titillium Web" font-weight="300" letter-spacing="0.02em"><tspan x="-130.637" y="0">MAKES MUSIC DO FINE!</tspan></text>
    <g id="Group_22" data-name="Group 22" transform="translate(534.499 1550.161)">
      <g id="Group_9" data-name="Group 9" transform="translate(176.035 303.531)">
        <path id="Path_2" data-name="Path 2" d="M318.089,335.7q0,4.038-1.675,5.856t-5.348,1.819q-3.671,0-5.36-1.831t-1.687-5.855q0-4.025,1.676-5.845t5.36-1.82q3.684,0,5.36,1.82T318.089,335.7Zm-8.91,0a7.284,7.284,0,0,0,.364,2.7,1.487,1.487,0,0,0,1.522.826,1.467,1.467,0,0,0,1.511-.815,7.5,7.5,0,0,0,.352-2.723,7.608,7.608,0,0,0-.341-2.714,1.46,1.46,0,0,0-1.51-.8,1.5,1.5,0,0,0-1.534.826A7.283,7.283,0,0,0,309.178,335.7Z" transform="translate(-304.019 -327.869)" fill="#fff"/>
        <path id="Path_3" data-name="Path 3" d="M332.273,343.337V328.561H337.3l3.4,5.6h.309v-5.6h5.116v14.776h-5.051l-3.352-6.02h-.331v6.02Z" transform="translate(-317.19 -328.12)" fill="#fff"/>
        <path id="Path_4" data-name="Path 4" d="M370.619,343.337H360.7V328.561h5.12v10.608h4.8Z" transform="translate(-330.439 -328.12)" fill="#fff"/>
        <path id="Path_5" data-name="Path 5" d="M380.772,331.109v-3.374h4.985v3.374Zm.023,11.843V331.815h4.94v11.138Z" transform="translate(-339.797 -327.735)" fill="#fff"/>
        <path id="Path_6" data-name="Path 6" d="M392.465,343.337V328.561h5.028l3.4,5.6h.309v-5.6h5.116v14.776h-5.051l-3.352-6.02h-.331v6.02Z" transform="translate(-345.248 -328.12)" fill="#fff"/>
        <path id="Path_7" data-name="Path 7" d="M420.887,343.337V328.561h11.071v4.08H426V333.9h4.631v4.035H426v1.323h5.955v4.08Z" transform="translate(-358.497 -328.12)" fill="#fff"/>
      </g>
      <g id="Group_21" data-name="Group 21" transform="translate(29.464 275.811)">
        <path id="Path_27" data-name="Path 27" d="M167.21,323.428l.2-24.385a3.842,3.842,0,0,1,3.547-4.034l-37.285.922-.754,0v.107l-2.723.021-.653.008s-12.888-.351-19.058-7.007a3.849,3.849,0,0,0-3.171-1.174c-2.759.48-5.869.845-9.208,1.106l-.468-3.257a.313.313,0,0,0-.3-.262V285.1a.312.312,0,0,0,.123-.232v-.052a7.757,7.757,0,0,0,1.818-.313l1.949-.643a1.554,1.554,0,0,0,1-1.377l.013-3.15a1.567,1.567,0,0,0-.993-1.388l-1.945-.657a8.012,8.012,0,0,0-2.046-.34l-3.15-.011a7.789,7.789,0,0,0-2.047.326l-1.949.641a1.564,1.564,0,0,0-1,1.378l-.012,3.15a1.56,1.56,0,0,0,.991,1.388l1.944.657a7.917,7.917,0,0,0,1.815.326v.044a.317.317,0,0,0,.122.234v.374a.316.316,0,0,0-.3.26l-.542,3.577c-5.018.232-10.4.267-15.862.144l-.5-3.451a.311.311,0,0,0-.3-.26v-.374a.324.324,0,0,0,.124-.235v-.045a7.94,7.94,0,0,0,1.82-.308l1.947-.641a1.561,1.561,0,0,0,1-1.38l.012-3.15a1.559,1.559,0,0,0-.991-1.388l-1.945-.658a7.941,7.941,0,0,0-2.046-.339l-3.15-.01a7.868,7.868,0,0,0-2.049.32l-1.948.646a1.559,1.559,0,0,0-1,1.379l-.011,3.15a1.559,1.559,0,0,0,.991,1.388l1.944.656a7.835,7.835,0,0,0,1.815.327v.043a.322.322,0,0,0,.123.236v.374a.317.317,0,0,0-.3.257l-.5,3.314c-5.53-.22-11.028-.586-16.2-1.065l-.522-3.626a.31.31,0,0,0-.3-.261v-.374a.318.318,0,0,0,.124-.233v-.044a7.818,7.818,0,0,0,1.819-.314l1.949-.643a1.554,1.554,0,0,0,1-1.378l.01-3.15a1.555,1.555,0,0,0-.987-1.387l-1.943-.656a7.822,7.822,0,0,0-2.046-.339l-3.15-.013a7.7,7.7,0,0,0-2.049.326l-1.949.641a1.562,1.562,0,0,0-1,1.378l-.011,3.15a1.562,1.562,0,0,0,.992,1.388l1.944.656a7.8,7.8,0,0,0,1.815.327v.044a.321.321,0,0,0,.123.234v.374a.313.313,0,0,0-.3.259l-.477,3.137c-6.015-.669-11.384-1.485-15.54-2.378a.939.939,0,0,0-1.2,1.026c.365,7.674-1.741,11.377-3.106,14.393-1.441,3.183-2.772,7.244-.8,10.219v.438c-1.988,2.962-.683,7.031.735,10.224,1.343,3.023,3.424,6.742,3.006,14.411a.939.939,0,0,0,1.2,1.036c4.16-.864,9.536-1.644,15.556-2.272l.453,3.141a.311.311,0,0,0,.3.261v.374a.322.322,0,0,0-.124.234v.044a7.876,7.876,0,0,0-1.818.314l-1.949.641a1.563,1.563,0,0,0-1,1.38l-.011,3.15a1.563,1.563,0,0,0,.992,1.388l1.944.657a7.825,7.825,0,0,0,2.045.337l3.15.011A7.681,7.681,0,0,0,57,346.429l1.947-.641a1.562,1.562,0,0,0,1-1.38l.011-3.15a1.555,1.555,0,0,0-.991-1.384l-1.944-.659a8.058,8.058,0,0,0-1.815-.325v-.045a.315.315,0,0,0-.121-.234v-.374a.315.315,0,0,0,.3-.259l.548-3.624c5.178-.443,10.682-.772,16.209-.951l.477,3.315a.316.316,0,0,0,.3.262v.374a.317.317,0,0,0-.123.232v.046a7.9,7.9,0,0,0-1.818.313l-1.949.643a1.557,1.557,0,0,0-1,1.378l-.012,3.15a1.561,1.561,0,0,0,.992,1.388l1.942.656A7.741,7.741,0,0,0,73,345.5l3.153.012a7.715,7.715,0,0,0,2.047-.326l1.947-.641a1.558,1.558,0,0,0,1-1.378l.012-3.15a1.558,1.558,0,0,0-.992-1.388l-1.943-.658a7.9,7.9,0,0,0-1.815-.326V337.6a.315.315,0,0,0-.121-.234v-.374a.309.309,0,0,0,.3-.257l.523-3.45c5.46-.085,10.846-.013,15.86.254l.516,3.584a.317.317,0,0,0,.3.261v.374a.316.316,0,0,0-.124.234v.046a7.907,7.907,0,0,0-1.819.312l-1.949.641a1.561,1.561,0,0,0-1,1.378l-.01,3.15a1.563,1.563,0,0,0,.992,1.388l1.944.655a7.714,7.714,0,0,0,2.045.34l3.15.011a7.727,7.727,0,0,0,2.049-.326l1.948-.641a1.56,1.56,0,0,0,1-1.381l.011-3.15a1.56,1.56,0,0,0-.992-1.388l-1.944-.656a7.764,7.764,0,0,0-1.815-.326V338a.32.32,0,0,0-.123-.236v-.374a.31.31,0,0,0,.3-.258l.493-3.256c3.335.285,6.442.667,9.2,1.169a3.844,3.844,0,0,0,3.179-1.154c6.22-6.614,19.109-6.875,19.109-6.875l.651.01,2.726.041v.107l.753.01,37.6.434A4.089,4.089,0,0,1,167.21,323.428Zm-82.319-5.573a6.982,6.982,0,0,1-4.427,1.179,23.622,23.622,0,0,1-2.99-.2q-1.57-.2-2.414-.4l-.868-.2.222-3.937a40.663,40.663,0,0,0,5.583.49q1.155,0,1.156-.511a.342.342,0,0,0-.267-.32,10.212,10.212,0,0,0-1.445-.279,8.394,8.394,0,0,1-4.237-1.524,4.427,4.427,0,0,1-1.121-3.392q0-3,1.445-4.115a7.286,7.286,0,0,1,4.449-1.113,34.534,34.534,0,0,1,4.961.423l.934.155-.139,4q-3.136-.334-4.559-.334a8.985,8.985,0,0,0-1.655.078.312.312,0,0,0-.234.32.416.416,0,0,0,.267.378,11.065,11.065,0,0,0,1.679.445,23.755,23.755,0,0,1,2.313.611,5.589,5.589,0,0,1,1.624.848,2.545,2.545,0,0,1,.956,1.335,7.694,7.694,0,0,1,.235,2.124A4.765,4.765,0,0,1,84.891,317.855Zm12.879-9.831H94.878v10.7H89.717v-10.7h-3.07v-4.2H97.77Zm13.411,10.7h-5.249l-.846-3.849h-1.267v3.849h-5.16v-14.9h6.273q3.447,0,4.938,1.146t1.49,4.249q0,3.1-1.646,4.437Zm6.363,0h-5.16v-14.9h5.16Zm15.3,0h-5.094l-3.38-6.073h-.334v6.073h-5.16v-14.9h5.072l3.425,5.65h.311v-5.65h5.16Zm13.837-.445a41.689,41.689,0,0,1-5.962.645,11.007,11.007,0,0,1-3.3-.433,4.262,4.262,0,0,1-2.146-1.434,5.828,5.828,0,0,1-1.079-2.358,16.423,16.423,0,0,1-.3-3.448q0-4.293,1.6-6.006t5.4-1.713a19.641,19.641,0,0,1,2.56.19q1.424.189,2.268.367l.845.2v3.892q-3.2-.288-4.549-.289a7.78,7.78,0,0,0-1.756.123,2.378,2.378,0,0,0-.657.289,1.044,1.044,0,0,0-.355.656,12.755,12.755,0,0,0-.156,2.424,5.926,5.926,0,0,0,.4,2.525,1.643,1.643,0,0,0,1.624.791l.756-.023v-1.112h-.666l-.022-3.6h5.5Zm11.767-.425a6.983,6.983,0,0,1-4.427,1.179,23.628,23.628,0,0,1-2.99-.2q-1.57-.2-2.414-.4l-.868-.2.223-3.937a40.668,40.668,0,0,0,5.582.49q1.156,0,1.156-.511a.342.342,0,0,0-.267-.32,10.208,10.208,0,0,0-1.445-.279,8.394,8.394,0,0,1-4.237-1.524,4.427,4.427,0,0,1-1.121-3.392q0-3,1.445-4.115a7.288,7.288,0,0,1,4.449-1.113,34.529,34.529,0,0,1,4.961.423l.934.155-.138,4q-3.134-.334-4.559-.334a8.985,8.985,0,0,0-1.655.078.313.313,0,0,0-.235.32.417.417,0,0,0,.267.378,11.09,11.09,0,0,0,1.679.445,23.757,23.757,0,0,1,2.313.611,5.587,5.587,0,0,1,1.623.846,2.549,2.549,0,0,1,.957,1.335,7.694,7.694,0,0,1,.235,2.124A4.764,4.764,0,0,1,158.449,317.853Z" transform="translate(-29.464 -275.811)" fill="#fff"/>
        <path id="Path_28" data-name="Path 28" d="M169.836,335.9H168.7v2.914h1.268q1.089,0,1.09-1.457T169.836,335.9Z" transform="translate(-94.369 -303.822)" fill="#fff"/>
      </g>
    </g>
    <g id="Rectangle_16" data-name="Rectangle 16" transform="translate(810 1842)" fill="none" stroke="#fff" stroke-width="1">
      <rect width="280" height="39" stroke="none"/>
      <rect x="0.5" y="0.5" width="279" height="38" fill="none"/>
    </g>
  </g>
</svg>
